<?xml version="1.0" encoding="UTF-8" standalone="no"?>
<!-- Created with Inkscape (http://www.inkscape.org/) -->

<svg
   width="66.622162mm"
   height="67.194977mm"
   viewBox="0 0 66.622162 67.194977"
   version="1.1"
   id="svg1"
   xml:space="preserve"
   xmlns="http://www.w3.org/2000/svg"
   xmlns:svg="http://www.w3.org/2000/svg"><defs
     id="defs1" /><g
     id="layer1"
     transform="translate(-67.42272,-106.94494)"><path
       style="fill:#000000;stroke-width:0.666145"
       d="m 89.675772,173.94444 c -0.20055,-0.11683 -4.018737,-0.16067 -11.046017,-0.12683 l -10.73954,0.0518 -0.0198,-5.29174 -0.0198,-5.29174 16.81436,0.004 16.814355,0.004 -0.72542,0.80112 c -0.39898,0.44062 -1.796147,1.83587 -3.104797,3.10057 -3.557591,3.43806 -4.928791,4.81415 -5.908571,5.92964 -0.90762,1.03333 -1.37705,1.21949 -2.06482,0.8188 z m 6.07645,-0.42373 c 0.23565,-0.44797 5.718318,-5.91826 9.972428,-9.9499 1.77573,-1.68286 4.27118,-4.21134 5.54544,-5.61884 1.27425,-1.4075 3.72545,-3.99344 5.4471,-5.74653 l 3.13026,-3.18742 0.001,6.69752 0.001,6.69752 -0.50422,0.3525 c -0.54581,0.38157 -6.72523,6.28235 -9.63928,9.20464 l -1.79704,1.80212 -6.17267,0.0524 c -6.147298,0.0521 -6.171878,0.051 -5.985188,-0.30399 z m 32.212018,0.30456 -5.02313,-0.0497 0.0253,-15.46315 c 0.0139,-8.50475 0.0337,-16.33331 0.044,-17.39683 l 0.0188,-1.93366 1.16142,1.14053 c 0.63878,0.6273 1.88517,1.97332 2.76976,2.99117 0.88459,1.01785 2.08701,2.29339 2.67204,2.83453 0.58502,0.54115 1.6838,1.55307 2.44173,2.24871 l 1.37805,1.26482 0.032,12.2479 c 0.0282,10.79982 8.6e-4,12.24303 -0.23242,12.20664 -0.1454,-0.0227 -2.52479,-0.0636 -5.28751,-0.091 z M 87.911385,160.28343 c -0.0686,-0.0686 -2.28305,-0.11402 -4.921,-0.10094 l -4.79626,0.0238 -1.15596,-1.21698 c -0.63576,-0.66934 -3.05843,-3.13252 -5.38369,-5.47374 l -4.22775,-4.25675 -0.002,-6.81791 -0.002,-6.81792 1.32375,1.32188 c 0.72806,0.72703 2.22277,2.29514 3.32157,3.48469 1.09881,1.18955 4.11185,4.28575 6.69565,6.88045 2.58381,2.59471 5.64958,5.70633 6.81283,6.91473 1.16326,1.20839 2.961,2.95027 3.994977,3.87082 1.03399,0.92056 1.8866,1.72579 1.89469,1.7894 0.008,0.0636 -0.36201,0.16002 -0.82246,0.21425 -0.46046,0.0542 -1.23542,0.14593 -1.722147,0.20378 -0.48672,0.0578 -0.94108,0.049 -1.00968,-0.0195 z m 10.194358,-5.45618 c -1.882831,-0.35614 -4.861201,-1.64491 -6.297391,-2.72494 -5.085247,-3.82419 -7.236987,-10.03869 -5.522747,-15.95042 1.07006,-3.69018 2.68717,-5.8756 5.987907,-8.09222 1.73699,-1.16649 3.14335,-1.80203 4.955321,-2.23936 5.345997,-1.2903 11.150057,0.71938 15.010917,5.19759 1.18769,1.37761 2.60433,4.20014 2.97478,5.92696 1.16274,5.42016 -1.08194,11.43274 -5.55176,14.87089 -3.23998,2.49217 -7.8928,3.70459 -11.557027,3.0115 z m 33.452817,-11.49636 c -1.36748,-1.42815 -3.2405,-3.42943 -4.16227,-4.44728 -0.92176,-1.01784 -2.5392,-2.68952 -3.59431,-3.71484 -1.93147,-1.87694 -11.10431,-11.28186 -12.64364,-12.96354 l -0.82746,-0.90398 0.48884,-0.0969 c 0.26887,-0.0533 3.05968,-0.10463 6.20181,-0.11401 l 5.71297,-0.017 4.42144,4.39695 c 2.43179,2.41833 4.91167,4.80761 5.51084,5.30952 0.59918,0.50189 1.13992,1.04348 1.20166,1.20352 0.0617,0.16004 0.12668,3.36436 0.14435,7.12069 0.0176,3.75635 0.0321,6.82834 0.0321,6.82666 0,-0.002 -1.11885,-1.17154 -2.48633,-2.5997 z m -54.628755,-2.40032 c -0.96392,-0.90462 -2.78365,-2.77712 -4.04384,-4.16109 -1.26019,-1.38398 -2.86933,-3.00124 -3.57586,-3.59391 l -1.28461,-1.0776 -0.0373,-12.55786 -0.0372,-12.55788 1.76251,4.8e-4 c 3.3113,6.8e-4 8.88728,0.2311 8.80545,0.3635 -0.045,0.0727 -0.10136,7.77336 -0.1254,17.1126 -0.0347,13.47459 0.003,17.08554 0.18149,17.48956 0.12387,0.28002 0.19871,0.53564 0.16631,0.56804 -0.0324,0.0324 -0.84758,-0.68123 -1.8115,-1.58585 z m 4.46634,-16.22304 0.0502,-6.59749 2.68172,-2.62725 c 1.47495,-1.44498 3.93325,-3.80134 5.462897,-5.23636 1.52964,-1.43501 2.8383,-2.70698 2.90813,-2.82659 0.0951,-0.16279 1.82156,-0.24983 6.867101,-0.34618 l 6.740137,-0.12872 -5.06576,5.01243 c -2.786157,2.75684 -6.057158,5.92696 -7.268888,7.04469 -1.21172,1.11773 -4.47964,4.34311 -7.262037,7.16751 -2.7824,2.8244 -5.08248,5.13532 -5.11127,5.13536 -0.0288,6e-5 -0.0298,-2.96878 -0.002,-6.5974 z m 19.358535,-6.97397 -1.388867,-0.0881 3.326507,-3.26063 c 5.76558,-5.6514 6.71351,-6.60196 6.8738,-6.89289 0.14032,-0.25468 1.37868,-0.29345 12.18529,-0.3816 l 12.0291,-0.0981 v 4.10034 c 0,2.25518 -0.0496,4.68731 -0.11032,5.40473 l -0.11033,1.30441 H 117.8517 c -8.63948,0 -16.33314,-0.0396 -17.09702,-0.0881 z"
       id="path1" /></g></svg>
